# xmcd
#
# Track frame offsets:
# 150
# 12100
# 25165
# 41007
# 56705
# 73870
# 84700
# 99532
# 116535
# 132982
# 146967
# 156952
# 170397
#
# Disc length: 2589 seconds
#
# Revision: 0
# Processed by: cddbd v1.4PL0 Copyright (c) Steve Scherf et al.
# Submitted via: Audion 3.0.1 (http://www.panic.com/audion/)
#
DISCID=b60a1b0d
DTITLE=dd - dd
DYEAR=1900
DGENRE=
TTITLE0=d
TTITLE1=d
TTITLE2=d
TTITLE3=d
TTITLE4=d
TTITLE5=d
TTITLE6=d
TTITLE7=d
TTITLE8=d
TTITLE9=d
TTITLE10=d
TTITLE11=d
TTITLE12=d
EXTD=
EXTT0=
EXTT1=
EXTT2=
EXTT3=
EXTT4=
EXTT5=
EXTT6=
EXTT7=
EXTT8=
EXTT9=
EXTT10=
EXTT11=
EXTT12=
PLAYORDER=
